<svg width="650" height="64" viewBox="0 0 650 64" fill="none" xmlns="http://www.w3.org/2000/svg">
<path fill-rule="evenodd" clip-rule="evenodd" d="M287.457 62.7988C289.987 61.6417 292.116 59.7601 293.576 57.3921C300.05 47.9321 303.041 29.3614 305.809 16.0974C305.825 16.0201 305.841 15.9428 305.857 15.8654C305.906 17.7092 306.035 19.5501 306.242 21.3828C306.669 25.3188 307.354 29.3508 307.857 32.8801C307.978 33.7184 308.089 34.558 308.19 35.3988C307.93 36.1224 307.69 36.8533 307.472 37.5908C306.489 40.9334 306.388 43.3254 307.657 43.9321C307.762 43.9975 307.876 44.0473 307.996 44.0801C308.805 44.3081 310.19 44.0081 310.9 42.3081C310.959 42.1632 311.012 42.0155 311.057 41.8654C311.317 40.8294 311.253 39.1494 311.025 37.0761C310.955 36.4494 310.877 35.8235 310.79 35.1988C313.524 26.5988 320.59 14.8654 325.857 8.73211C320.946 20.5694 313.657 43.0494 314.884 55.3948C314.951 56.0898 315.053 56.7809 315.19 57.4654C315.316 58.1181 315.515 58.7545 315.782 59.3628C318.762 65.9988 328.556 61.3014 327.324 59.3321C326.187 59.3546 325.074 59.0014 324.158 58.3271C323.242 57.6528 322.575 56.6952 322.258 55.6028C317.781 44.1361 330.128 9.80677 333.733 3.67744C333.815 3.53753 333.901 3.40013 333.99 3.26544C334.673 2.21211 331.898 1.33211 330.112 1.53344C329.981 1.54784 329.852 1.56965 329.724 1.59877C329.553 1.63115 329.387 1.68491 329.229 1.75877C329.14 1.80277 329.06 1.85344 328.998 1.91211C328.97 1.93811 328.945 1.96718 328.924 1.99877C328.246 2.47758 327.618 3.02344 327.049 3.62811C322.566 8.21877 315.546 19.3174 311.024 28.7281C310.694 29.4146 310.371 30.1049 310.057 30.7988C308.737 22.8774 306.894 12.9961 308.8 7.23611C308.818 7.17906 308.838 7.12217 308.857 7.06544C310.294 6.07077 310.861 4.89344 310.861 3.60811C310.86 3.33684 310.836 3.06614 310.79 2.79877C310.525 1.27211 308.74 0.538773 307.473 0.796106C307.468 0.796977 307.462 0.797866 307.457 0.798773C306.081 0.852106 304.745 2.33477 303.52 4.61477C303.185 5.24146 302.875 5.88107 302.59 6.53211C298.257 8.19877 291.124 4.66544 286.057 9.86544C282.553 13.4348 282.586 22.5001 288.986 23.9014C289.164 23.9403 289.344 23.9728 289.524 23.9988C289.658 24.1673 289.797 24.3314 289.941 24.4908C291.617 26.3388 293.35 26.7268 294.457 25.8654C295.457 25.1321 295.39 23.5321 294.057 22.8654C294.297 22.7597 294.513 22.6074 294.693 22.4174C295.402 21.6614 295.345 20.4588 294.59 19.8654C294.205 19.5203 293.704 19.3328 293.186 19.3401C292.254 19.3401 291.149 19.8788 290.016 20.9934C289.798 21.2085 289.589 21.4327 289.39 21.6654C288.573 21.4721 287.838 21.0266 287.288 20.3921C285.452 18.2681 285.8 14.2614 287.51 11.8001C287.639 11.6146 287.777 11.4362 287.924 11.2654C289.246 9.8396 291.079 8.99579 293.022 8.91877C295.754 8.63344 298.812 9.10277 301.384 8.84677C301.52 8.83308 301.655 8.81708 301.79 8.79877C301.449 9.70785 301.159 10.6356 300.922 11.5774C298.009 22.5694 293.798 52.0574 285.701 58.9161C284.855 59.6879 283.793 60.1821 282.657 60.3321C282.402 60.3583 282.145 60.3716 281.888 60.3721C270.066 60.3721 270.46 31.7988 289.39 34.9321C289.468 34.9516 289.548 34.9614 289.628 34.9614C289.85 34.9595 290.066 34.8834 290.24 34.7453C290.414 34.6072 290.538 34.4149 290.59 34.1988C290.613 34.1231 290.629 34.0454 290.637 33.9668C290.693 33.3988 290.313 32.9241 289.724 32.8654C289.07 32.7858 288.414 32.7347 287.756 32.7121C278.98 32.4214 273.549 37.7068 272.057 45.5988C271.873 46.5382 271.75 47.4886 271.69 48.4441C271.086 58.2508 277.634 65.3788 285.752 63.3534C286.332 63.2074 286.902 63.0221 287.457 62.7988ZM486.457 39.8654C486.924 38.3321 485.59 36.5988 482.39 35.7321C481.809 34.8256 481.379 33.8309 481.116 32.7868C478.416 22.7081 485.702 2.96277 492.37 2.96277C492.647 2.9627 492.922 2.99719 493.19 3.06544C501.19 5.13211 476.857 56.0654 494.324 60.1988C494.86 60.3277 495.407 60.4067 495.957 60.4348C509.688 61.0948 511.794 26.0908 518.752 7.62544C518.873 7.30424 518.997 6.98422 519.124 6.66544C521.054 1.83877 524.165 1.85744 524.38 5.52277C524.387 5.65909 524.391 5.79559 524.39 5.93211C524.405 6.21614 524.527 6.48413 524.73 6.68277C524.934 6.8814 525.205 6.99612 525.489 7.00411C525.523 7.00418 525.557 7.0024 525.59 6.99877C525.823 6.97635 526.043 6.88224 526.22 6.72944C526.432 6.54277 526.564 6.27344 526.588 5.96277C526.59 5.93037 526.591 5.89791 526.59 5.86544C526.592 5.79523 526.593 5.725 526.593 5.65477C526.593 -0.50656 520.912 -1.74789 517.458 4.36277C517.389 4.48485 517.322 4.60797 517.257 4.73211C511.396 16.1228 505.933 57.0654 497.345 57.0654C497.338 57.0655 497.331 57.0655 497.324 57.0654C496.683 57.0688 496.061 56.8453 495.569 56.4344C495.077 56.0234 494.746 55.4516 494.634 54.8201C491.937 46.0494 504.768 14.0694 498.489 3.68144C497.795 2.48331 496.731 1.54218 495.457 0.998773C494.812 0.725088 494.119 0.583627 493.418 0.582773C485.094 0.582773 476.597 20.4334 479.328 32.6308C479.623 34.0165 480.116 35.3528 480.79 36.5988C479.758 38.3494 479.512 39.8894 479.888 40.9521C480.056 41.4508 480.401 41.8706 480.857 42.1321C481.92 42.7294 483.38 42.0041 483.457 40.5481C483.457 40.5428 483.457 40.5374 483.457 40.5321C483.584 40.6442 483.722 40.7421 483.87 40.8241C484.934 41.4134 486.164 40.9254 486.457 39.8654ZM180.657 26.1988C180.794 26.3855 180.938 26.5678 181.086 26.7454C182.273 28.1588 183.486 28.8148 184.51 28.8148C184.971 28.8186 185.42 28.6726 185.79 28.3988C186.121 28.1581 186.351 27.8039 186.436 27.4041C186.585 26.7148 186.306 25.9228 185.554 25.4308C185.501 25.3958 185.446 25.3629 185.39 25.3321C185.617 25.2372 185.825 25.1041 186.006 24.9388C186.798 24.2068 186.762 23.0121 186.009 22.3481C186.003 22.3427 185.997 22.3374 185.99 22.3321C184.754 21.3561 182.757 21.8414 180.802 24.1574C180.753 24.2152 180.705 24.2734 180.657 24.3321C179.741 24.0699 178.894 23.6103 178.174 22.9854C173.342 18.7188 177.116 8.07477 185.324 9.59877C186.031 9.73913 186.724 9.93986 187.397 10.1988C188.937 10.7908 190.154 11.6081 191.434 12.4241C191.923 12.7396 192.42 13.0424 192.924 13.3321C192.756 14.9588 192.777 16.6801 193.145 18.4548C193.215 18.7944 193.297 19.1315 193.39 19.4654C194.125 22.1889 195.306 24.7719 196.885 27.1094C200.048 32.0974 203.924 36.4761 203.924 42.9321C203.857 50.2654 196.257 58.1988 187.457 57.5321C175.924 56.5988 179.924 40.3988 186.19 35.7321C189.457 33.2654 191.657 34.2654 192.79 35.3988C192.956 35.5628 193.177 35.6586 193.409 35.6668C193.713 35.6814 194.029 35.5614 194.257 35.3321C194.466 35.1228 194.566 34.8601 194.566 34.5988C194.566 34.355 194.48 34.119 194.324 33.9321C193.999 33.5409 193.608 33.2104 193.168 32.9561C191.288 31.8441 188.026 31.5734 184.257 34.5988C182.554 35.9962 181.141 37.7133 180.097 39.6534C176.502 46.1201 176.021 55.1961 182.144 59.2574C183.144 59.9118 184.239 60.4091 185.39 60.7321C186.479 61.0493 187.597 61.2574 188.726 61.3534C199.41 62.2641 210.093 53.1948 209.79 41.6654C209.516 37.5188 208.086 33.5317 205.662 30.1561C203.614 26.9348 201.15 23.7801 199.124 20.2654C198.257 18.6654 197.724 17.0654 197.59 15.3988C206.728 18.4281 212.318 12.4694 212.318 7.10277C212.338 6.1223 212.139 5.14982 211.736 4.25562C211.333 3.36141 210.737 2.56779 209.99 1.93211C204.857 -2.46789 195.657 2.46544 193.39 11.1321C190.616 9.45477 188.34 7.52544 183.841 7.52544C183.691 7.52558 183.541 7.5278 183.39 7.53211C181.829 7.55355 180.296 7.94565 178.916 8.67611C172.594 12.0748 171.746 22.0614 178.153 25.3494C178.943 25.7496 179.786 26.0356 180.657 26.1988ZM368.39 26.1988C368.528 26.3855 368.671 26.5678 368.82 26.7454C370.006 28.1588 371.22 28.8148 372.244 28.8148C372.704 28.8186 373.154 28.6726 373.524 28.3988C373.854 28.1581 374.084 27.8039 374.169 27.4041C374.318 26.7148 374.04 25.9228 373.288 25.4308C373.234 25.3958 373.18 25.3629 373.124 25.3321C373.35 25.2372 373.558 25.1041 373.74 24.9388C374.532 24.2068 374.496 23.0121 373.742 22.3481C373.736 22.3427 373.73 22.3374 373.724 22.3321C372.488 21.3561 370.49 21.8414 368.536 24.1574C368.487 24.2152 368.438 24.2734 368.39 24.3321C367.474 24.0699 366.627 23.6103 365.908 22.9854C361.076 18.7188 364.849 8.07477 373.057 9.59877C373.764 9.73913 374.458 9.93986 375.13 10.1988C376.67 10.7908 377.888 11.6081 379.168 12.4241C379.656 12.7396 380.153 13.0424 380.657 13.3321C380.489 14.9588 380.51 16.6801 380.878 18.4548C380.948 18.7944 381.03 19.1315 381.124 19.4654C381.859 22.1889 383.039 24.7719 384.618 27.1094C387.781 32.0974 391.657 36.4761 391.657 42.9321C391.59 50.2654 383.99 58.1988 375.19 57.5321C363.657 56.5988 367.657 40.3988 373.924 35.7321C377.19 33.2654 379.39 34.2654 380.524 35.3988C380.689 35.5628 380.91 35.6586 381.142 35.6668C381.446 35.6814 381.762 35.5614 381.99 35.3321C382.2 35.1228 382.3 34.8601 382.3 34.5988C382.3 34.355 382.214 34.119 382.057 33.9321C381.733 33.5409 381.341 33.2104 380.901 32.9561C379.021 31.8441 375.76 31.5734 371.99 34.5988C370.287 35.9962 368.874 37.7133 367.83 39.6534C364.236 46.1201 363.754 55.1961 369.877 59.2574C370.878 59.9118 371.973 60.4091 373.124 60.7321C374.212 61.0493 375.33 61.2574 376.46 61.3534C387.144 62.2641 397.826 53.1948 397.524 41.6654C397.25 37.5188 395.82 33.5317 393.396 30.1561C391.348 26.9348 388.884 23.7801 386.857 20.2654C385.99 18.6654 385.457 17.0654 385.324 15.3988C394.461 18.4281 400.052 12.4694 400.052 7.10277C400.071 6.1223 399.872 5.14982 399.469 4.25562C399.067 3.36141 398.471 2.56779 397.724 1.93211C392.59 -2.46789 383.39 2.46544 381.124 11.1321C378.349 9.45477 376.073 7.52544 371.574 7.52544C371.424 7.52558 371.274 7.5278 371.124 7.53211C369.563 7.55355 368.029 7.94565 366.649 8.67611C360.328 12.0748 359.48 22.0614 365.886 25.3494C366.677 25.7496 367.52 26.0356 368.39 26.1988ZM31.1651 7.06944C30.7781 6.08175 30.1891 5.18578 29.4357 4.43889C28.6824 3.69201 27.7814 3.11067 26.7905 2.73211C25.7911 2.39615 24.7435 2.2259 23.6891 2.22811C12.4531 2.22811 0.60913 20.9081 2.54646 31.0894C2.78569 32.5387 3.42426 33.8925 4.39046 34.9988L4.79046 35.3988C5.50755 32.5388 6.46243 29.7437 7.64513 27.0428C9.05446 23.8294 10.7491 20.8694 12.6171 18.4348C13.9531 16.6278 15.5637 15.041 17.3905 13.7321C17.4769 13.6745 17.5664 13.6216 17.6585 13.5734C18.6905 13.0334 19.8865 13.2054 20.7238 13.8948C21.1741 14.2676 21.4998 14.7691 21.6571 15.3321C21.7348 15.583 21.7739 15.8442 21.7731 16.1068C21.7731 16.9601 21.3718 17.8228 20.6571 18.3321C18.5958 19.8014 16.6358 22.2801 14.9078 25.3041C12.8552 28.9989 11.2492 32.9247 10.1238 36.9988C10.525 36.9851 10.9252 36.949 11.3225 36.8908C15.0385 36.3494 19.1651 33.8934 21.9905 29.8654C21.8656 29.5653 21.7556 29.2592 21.6611 28.9481C21.2731 27.6641 21.2691 26.5854 21.5651 25.7948C21.6604 25.5156 21.8126 25.2592 22.012 25.0419C22.2115 24.8246 22.4538 24.651 22.7238 24.5321C22.8945 24.4621 23.0756 24.4206 23.2598 24.4094C24.2265 24.3481 25.1931 25.1148 25.1931 26.2988C25.193 26.3321 25.1921 26.3655 25.1905 26.3988C25.2668 26.3436 25.3465 26.2933 25.4291 26.2481C25.7358 26.0814 26.0531 26.0054 26.3558 26.0054C26.7585 25.9983 27.1507 26.1344 27.4624 26.3896C27.774 26.6449 27.9848 27.0025 28.0571 27.3988C28.2745 28.6988 27.3038 29.9534 25.2185 30.6294C24.6871 30.798 24.1425 30.9215 23.5905 30.9988C22.4044 32.7225 20.9557 34.2499 19.2971 35.5254C17.2931 37.0641 15.0825 38.1468 12.8945 38.7028C11.8152 38.9822 10.7053 39.1264 9.59046 39.1321C9.57748 39.1881 9.56459 39.2441 9.5518 39.3001C7.33046 48.8321 8.05313 57.7548 14.4318 57.7548C14.6182 57.7544 14.8046 57.7468 14.9905 57.7321C15.2776 57.7041 15.5621 57.6533 15.8411 57.5801C16.347 57.444 16.8424 57.272 17.3238 57.0654C17.2998 57.0406 17.2758 57.0157 17.2518 56.9908C14.1518 53.7561 11.6451 51.0108 10.0571 52.5988C10.0554 52.5992 10.0536 52.5997 10.0518 52.6001C8.92913 52.7841 10.1305 48.7321 13.3238 48.7321C14.6785 48.7721 16.1771 49.7174 17.7465 51.0548C18.867 52.0385 19.9491 53.065 20.9905 54.1321C21.6881 53.3562 22.3352 52.5363 22.9278 51.6774C30.6771 40.5494 35.7851 17.0921 31.1651 7.06944ZM434.79 38.9988L437.324 29.7988C437.38 29.5925 437.412 29.3804 437.42 29.1668C437.472 27.7041 436.338 26.4388 434.796 26.4001C434.772 26.3994 434.748 26.3989 434.724 26.3988C433.524 26.3988 432.457 27.1988 432.124 28.3988L425.457 52.8654C425.403 53.067 425.372 53.2741 425.365 53.4828C425.316 54.9748 426.532 56.2654 428.057 56.2654C428.433 56.2656 428.804 56.1856 429.147 56.0309C429.489 55.8762 429.794 55.6502 430.042 55.3681C430.291 55.0872 430.478 54.7569 430.59 54.3988C430.804 53.7023 431.029 53.0093 431.265 52.3201C433.897 44.5881 440.173 29.5748 443.745 29.5748C443.828 29.5744 443.91 29.5824 443.99 29.5988C444.224 29.6458 444.436 29.7663 444.597 29.9426C444.757 30.1189 444.857 30.3418 444.881 30.5788C445.837 35.0321 435.616 52.8588 443.921 55.9921C444.226 56.1063 444.539 56.1976 444.857 56.2654C445.182 56.3363 445.514 56.3747 445.846 56.3801C451.18 56.4601 454.86 47.7668 455.99 43.9321C456.01 43.8614 456.021 43.7908 456.021 43.7228C456.018 43.5296 455.946 43.3438 455.818 43.1989C455.69 43.054 455.515 42.9594 455.324 42.9321C455.183 42.9308 455.043 42.9585 454.913 43.0134C454.816 43.0509 454.73 43.1118 454.662 43.1906C454.594 43.2695 454.546 43.3639 454.524 43.4654C454.507 43.5273 454.49 43.5891 454.473 43.6508C453.044 48.7241 449.76 53.7961 447.257 53.5321C446.857 53.5042 446.483 53.3215 446.216 53.0228C443.074 49.3748 456.526 27.9414 446.19 26.3321C446.016 26.3063 445.839 26.2934 445.662 26.2934C442.394 26.2934 439.112 30.6588 436.332 35.9068C435.794 36.9252 435.28 37.9561 434.79 38.9988ZM576.99 38.9988L579.524 29.7988C579.58 29.5925 579.612 29.3804 579.62 29.1668C579.672 27.7041 578.538 26.4388 576.996 26.4001C576.972 26.3994 576.948 26.3989 576.924 26.3988C575.724 26.3988 574.657 27.1988 574.324 28.3988L567.657 52.8654C567.603 53.067 567.572 53.2741 567.565 53.4828C567.516 54.9748 568.732 56.2654 570.257 56.2654C570.633 56.2656 571.004 56.1856 571.347 56.0309C571.689 55.8762 571.994 55.6502 572.242 55.3681C572.491 55.0872 572.678 54.7569 572.79 54.3988C573.004 53.7023 573.229 53.0093 573.465 52.3201C576.097 44.5881 582.373 29.5748 585.945 29.5748C586.028 29.5744 586.11 29.5824 586.19 29.5988C586.424 29.6458 586.636 29.7663 586.797 29.9426C586.957 30.1189 587.057 30.3418 587.081 30.5788C588.037 35.0321 577.816 52.8588 586.121 55.9921C586.426 56.1063 586.739 56.1976 587.057 56.2654C587.382 56.3363 587.714 56.3747 588.046 56.3801C593.38 56.4601 597.06 47.7668 598.19 43.9321C598.21 43.8614 598.221 43.7908 598.221 43.7228C598.218 43.5296 598.146 43.3438 598.018 43.1989C597.89 43.054 597.715 42.9594 597.524 42.9321C597.383 42.9308 597.243 42.9585 597.113 43.0134C597.016 43.0509 596.93 43.1118 596.862 43.1906C596.794 43.2695 596.746 43.3639 596.724 43.4654C596.707 43.5273 596.69 43.5891 596.673 43.6508C595.244 48.7241 591.96 53.7961 589.457 53.5321C589.057 53.5042 588.684 53.3215 588.416 53.0228C585.274 49.3748 598.726 27.9414 588.39 26.3321C588.216 26.3063 588.039 26.2934 587.862 26.2934C584.594 26.2934 581.312 30.6588 578.532 35.9068C577.994 36.9252 577.48 37.9561 576.99 38.9988ZM628.324 38.9988L630.857 29.7988C630.913 29.5925 630.945 29.3804 630.953 29.1668C631.005 27.7041 629.872 26.4388 628.329 26.4001C628.305 26.3994 628.281 26.3989 628.257 26.3988C627.057 26.3988 625.99 27.1988 625.657 28.3988L618.99 52.8654C618.936 53.067 618.905 53.2741 618.898 53.4828C618.849 54.9748 620.065 56.2654 621.59 56.2654C621.966 56.2656 622.338 56.1856 622.68 56.0309C623.022 55.8762 623.328 55.6502 623.576 55.3681C623.825 55.0872 624.011 54.7569 624.124 54.3988C624.337 53.7023 624.562 53.0093 624.798 52.3201C627.43 44.5881 633.707 29.5748 637.279 29.5748C637.361 29.5744 637.443 29.5824 637.524 29.5988C637.757 29.6458 637.97 29.7663 638.13 29.9426C638.29 30.1189 638.39 30.3418 638.414 30.5788C639.37 35.0321 629.149 52.8588 637.454 55.9921C637.759 56.1063 638.072 56.1976 638.39 56.2654C638.716 56.3363 639.047 56.3747 639.38 56.3801C644.713 56.4601 648.393 47.7668 649.524 43.9321C649.544 43.8614 649.554 43.7908 649.554 43.7228C649.551 43.5296 649.479 43.3438 649.352 43.1989C649.224 43.054 649.048 42.9594 648.857 42.9321C648.716 42.9308 648.576 42.9585 648.446 43.0134C648.349 43.0509 648.263 43.1118 648.195 43.1906C648.127 43.2695 648.08 43.3639 648.057 43.4654C648.041 43.5273 648.024 43.5891 648.006 43.6508C646.577 48.7241 643.293 53.7961 640.79 53.5321C640.39 53.5042 640.017 53.3215 639.749 53.0228C636.608 49.3748 650.06 27.9414 639.724 26.3321C639.549 26.3063 639.373 26.2934 639.196 26.2934C635.928 26.2934 632.645 30.6588 629.865 35.9068C629.327 36.9252 628.813 37.9561 628.324 38.9988ZM2.7238 36.2654C3.19046 36.7988 3.7238 37.2654 4.3238 37.6654C3.92613 39.6141 3.66638 41.5883 3.54646 43.5734C3.0798 51.7454 5.46246 58.6734 12.3025 60.0988C12.6404 60.1687 12.9812 60.2243 13.3238 60.2654C13.7595 60.3198 14.1981 60.347 14.6371 60.3468C16.3231 60.3268 17.9868 59.9587 19.5238 59.2654C20.8063 60.5668 22.2469 61.7023 23.8118 62.6454C27.1531 64.5334 30.7758 64.5508 34.3838 59.5814C34.5697 59.3247 34.7498 59.0637 34.9238 58.7988C34.9705 58.7223 35.0039 58.6384 35.0225 58.5508C35.0771 58.2828 34.9785 58.0014 34.7238 57.7988C34.6582 57.746 34.5843 57.7046 34.5051 57.6761C34.4265 57.6481 34.3451 57.6348 34.2665 57.6348C34.1579 57.6327 34.0508 57.6591 33.9556 57.7113C33.8604 57.7634 33.7805 57.8396 33.7238 57.9321C33.7211 57.9366 33.7185 57.941 33.7158 57.9454C33.1771 58.7574 31.9105 61.0628 29.3238 60.5988C28.7269 60.4901 28.1535 60.2785 27.6291 59.9734C27.0651 59.6628 26.4851 59.2588 25.8958 58.7894C25.0951 58.1407 24.3258 57.4541 23.5905 56.7321C25.888 54.7217 27.8615 52.3686 29.4411 49.7561C39.3558 33.9228 41.9998 5.43877 28.3905 0.732106C12.9851 -4.60523 -3.7442 20.5708 0.74113 32.9894C1.16923 34.2064 1.84424 35.3217 2.7238 36.2654ZM57.0571 26.4654H56.9905C56.769 26.4125 56.5421 26.3856 56.3145 26.3854C55.7475 26.3798 55.1929 26.5516 54.7284 26.8767C54.2638 27.2018 53.9126 27.6641 53.7238 28.1988C53.3238 29.3988 52.9238 30.5988 52.5238 31.8654C52.5238 31.9228 52.4758 31.9801 52.4611 32.0774C52.4585 32.0955 52.4571 32.1138 52.4571 32.1321C52.1238 33.1988 51.7905 34.3321 51.5238 35.4654C49.7998 41.4374 46.7118 51.7881 43.7291 53.4934C43.5046 53.6288 43.2518 53.7105 42.9905 53.7321C42.9483 53.7346 42.906 53.736 42.8638 53.7361C38.6665 53.7361 42.0998 41.4988 44.8865 31.9761C45.0989 31.2503 45.3114 30.5246 45.5238 29.7988C45.5481 29.7224 45.569 29.645 45.5865 29.5668C45.8985 28.1748 45.0465 26.7814 43.6571 26.4654H43.5905C43.369 26.4125 43.1421 26.3856 42.9145 26.3854C42.3475 26.3798 41.7929 26.5516 41.3284 26.8767C40.8638 27.2018 40.5126 27.6641 40.3238 28.1988C39.6354 30.1802 39.0071 32.182 38.4398 34.2014C36.1225 42.4841 34.8878 51.2974 38.0318 54.7574C38.4609 55.2225 38.9797 55.5958 39.5569 55.8549C40.1341 56.1141 40.7578 56.2538 41.3905 56.2654C41.4921 56.2724 41.5939 56.2759 41.6958 56.2761C44.4411 56.2761 46.5065 53.7708 48.0318 50.5574C48.6391 49.2513 49.1598 47.9066 49.5905 46.5321C49.3931 51.6694 50.6278 55.6348 54.6425 56.2441C54.6917 56.2518 54.7411 56.2589 54.7905 56.2654C60.3811 57.0548 63.4411 47.4628 64.2905 43.9401C64.3017 43.893 64.3128 43.8459 64.3238 43.7988C64.3417 43.7462 64.3529 43.6915 64.3571 43.6361C64.3745 43.3881 64.2451 43.1588 64.0158 43.0294C63.9254 42.9791 63.8263 42.9461 63.7238 42.9321C63.3625 42.8721 63.0558 43.0294 62.9505 43.3548C62.9389 43.391 62.93 43.4279 62.9238 43.4654C61.9905 46.8654 59.1238 53.9321 56.3905 53.7321C55.9553 53.6907 55.5451 53.5105 55.2202 53.2181C54.8954 52.9257 54.6732 52.5365 54.5865 52.1081C53.3705 48.3014 56.3531 38.5748 58.6811 30.8294C58.7845 30.4859 58.8876 30.1424 58.9905 29.7988C59.3905 28.3321 58.5238 26.7988 57.0571 26.4654ZM130.324 44.7321C130.358 44.7391 130.393 44.7426 130.428 44.7428C130.725 44.7428 131.005 44.4974 131.124 44.1988C131.428 43.1781 131.725 42.1554 132.016 41.1308C132.355 39.935 132.679 38.7354 132.99 37.5321C134.444 40.9401 137.862 43.2241 139.285 46.4254C139.568 47.0529 139.761 47.7173 139.857 48.3988C139.873 48.5474 139.885 48.6963 139.893 48.8454C139.917 49.3174 139.893 49.7388 139.79 50.1988C139.457 49.9321 139.057 49.7321 138.59 49.7321C137.457 49.7321 136.59 50.5988 136.59 51.7321C136.59 52.3988 136.924 52.9988 137.457 53.3988C136.841 53.7434 136.158 53.9521 135.454 54.0108C135.329 54.0214 135.204 54.0268 135.08 54.0268C134.689 54.0284 134.299 53.9741 133.924 53.8654C131.621 53.1814 131.876 49.9401 133.166 48.1561C133.256 48.0314 133.353 47.9121 133.457 47.7988C133.563 47.6726 133.633 47.5193 133.657 47.3561C133.692 47.1188 133.629 46.8708 133.469 46.6668C133.408 46.5899 133.337 46.5221 133.257 46.4654C133.114 46.3508 132.936 46.3108 132.756 46.3281C132.509 46.3527 132.282 46.474 132.124 46.6654C130.19 49.0654 129.057 54.9988 134.59 56.2654C134.954 56.3537 135.322 56.4157 135.694 56.4508C135.938 56.4734 136.182 56.4841 136.425 56.4841C138.043 56.468 139.625 55.9997 140.99 55.1321C141.283 55.2461 141.585 55.3327 141.893 55.3908C142.276 55.4668 142.69 55.5108 143.122 55.5268C143.234 55.5305 143.346 55.5323 143.457 55.5321C144.308 55.4595 145.133 55.2064 145.879 54.7895C146.624 54.3727 147.271 53.8017 147.778 53.1148C149.788 50.7241 151.001 47.0788 151.552 44.6334C151.614 44.3563 151.672 44.0781 151.724 43.7988C151.73 43.7595 151.733 43.7198 151.733 43.6801C151.733 43.2868 151.449 42.9614 151.054 42.8774C151.033 42.8727 151.012 42.8687 150.99 42.8654C150.813 42.8734 150.642 42.9376 150.504 43.0488C150.365 43.16 150.265 43.3125 150.218 43.4841C150.207 43.5217 150.197 43.56 150.19 43.5988C149.324 46.9321 147.59 53.1988 143.657 53.7321C143.324 53.7321 142.99 53.7321 142.724 53.6654C143.537 52.7679 144.158 51.7133 144.548 50.5668C144.777 49.886 144.925 49.1808 144.99 48.4654C145.586 42.2788 140.182 39.4894 138.065 35.4081C137.807 34.9176 137.603 34.4003 137.457 33.8654C137.361 33.5217 137.303 33.1685 137.284 32.8121C137.125 29.8921 139.625 27.3601 141.59 27.5988C141.962 27.6324 142.314 27.7843 142.593 28.0321C143.458 28.8108 143.529 30.4494 143.324 31.7321C143.257 32.3321 143.724 32.7988 144.324 32.7321C144.429 32.7297 144.533 32.7047 144.628 32.6587C144.722 32.6127 144.806 32.5467 144.873 32.4654C144.97 32.3513 145.033 32.213 145.057 32.0654C146.081 27.8454 143.546 25.2201 139.632 25.7188C139.462 25.7402 139.292 25.7669 139.124 25.7988C137.843 26.0739 136.642 26.6375 135.611 27.4469C134.581 28.2563 133.749 29.29 133.178 30.4694C132.905 31.0005 132.686 31.5575 132.524 32.1321C132.311 33.0212 132.101 33.9109 131.894 34.8014C131.326 37.2361 130.72 39.8601 130.105 42.1761C129.962 42.7186 129.812 43.2595 129.657 43.7988C129.64 43.8587 129.631 43.9205 129.629 43.9828C129.614 44.3814 129.92 44.7321 130.324 44.7321ZM97.9905 29.3321C97.6998 30.0641 97.4113 30.797 97.1251 31.5308C96.0438 34.3121 94.7918 37.6841 93.5731 41.6921C93.3733 42.3482 93.1791 43.006 92.9905 43.6654C92.9771 43.712 92.9682 43.7598 92.9638 43.8081C92.9345 44.1468 93.1478 44.4308 93.4625 44.5494C93.5254 44.5729 93.5906 44.5895 93.6571 44.5988C93.6914 44.6057 93.7262 44.6093 93.7611 44.6094C94.0585 44.6094 94.3385 44.3641 94.4571 44.0654C94.6173 43.5061 94.7813 42.9479 94.9491 42.3908C96.0971 38.5668 97.2491 35.3774 98.2518 32.7001C98.6996 31.5114 99.1458 30.322 99.5905 29.1321C99.7436 29.1208 99.897 29.1137 100.05 29.1108C100.368 29.1068 100.666 29.1241 100.937 29.1774C101.276 29.2333 101.594 29.3788 101.857 29.5988C105.11 32.6601 92.6798 52.0774 101.409 55.8534C101.833 56.0336 102.273 56.1716 102.724 56.2654C108.59 57.5321 112.457 48.3988 113.857 43.9321C113.874 43.8722 113.884 43.8104 113.886 43.7481C113.901 43.3508 113.596 42.9988 113.19 42.9988C112.79 42.9321 112.457 43.1988 112.39 43.5321C110.832 48.6641 107.69 53.5428 105.31 53.5428C105.248 53.5427 105.186 53.5391 105.124 53.5321C98.7571 52.8108 113.978 28.8828 105.154 26.4308C105.012 26.3916 104.869 26.3586 104.724 26.3321C104.236 26.2654 103.738 26.2734 103.242 26.3294C102.247 26.4742 101.269 26.7209 100.324 27.0654C100.464 26.6662 100.594 26.2634 100.713 25.8574C101.158 24.3201 101.286 23.1361 100.988 22.2108C100.827 21.7113 100.527 21.2679 100.124 20.9321C95.5425 17.1134 91.1425 23.7454 92.1438 27.2548C92.1902 27.4187 92.2504 27.5784 92.3238 27.7321C92.4936 28.1072 92.7402 28.4424 93.0478 28.7161C94.1158 29.6494 95.7571 29.5788 97.3971 29.4001C97.595 29.3783 97.7928 29.3556 97.9905 29.3321ZM235.724 29.3321C235.433 30.0641 235.145 30.797 234.858 31.5308C233.777 34.3121 232.525 37.6841 231.306 41.6921C231.107 42.3482 230.912 43.006 230.724 43.6654C230.71 43.712 230.701 43.7598 230.697 43.8081C230.668 44.1468 230.881 44.4308 231.196 44.5494C231.259 44.5729 231.324 44.5895 231.39 44.5988C231.425 44.6057 231.46 44.6093 231.494 44.6094C231.792 44.6094 232.072 44.3641 232.19 44.0654C232.351 43.5061 232.515 42.9479 232.682 42.3908C233.83 38.5668 234.982 35.3774 235.985 32.7001C236.433 31.5114 236.879 30.322 237.324 29.1321C237.477 29.1208 237.63 29.1137 237.784 29.1108C238.101 29.1068 238.4 29.1241 238.67 29.1774C239.009 29.2333 239.327 29.3788 239.59 29.5988C242.844 32.6601 230.413 52.0774 239.142 55.8534C239.566 56.0336 240.006 56.1716 240.457 56.2654C246.324 57.5321 250.19 48.3988 251.59 43.9321C251.608 43.8722 251.618 43.8104 251.62 43.7481C251.634 43.3508 251.329 42.9988 250.924 42.9988C250.524 42.9321 250.19 43.1988 250.124 43.5321C248.565 48.6641 245.424 53.5428 243.044 53.5428C242.981 53.5427 242.919 53.5391 242.857 53.5321C236.49 52.8108 251.712 28.8828 242.888 26.4308C242.746 26.3916 242.602 26.3586 242.457 26.3321C241.969 26.2654 241.472 26.2734 240.976 26.3294C239.98 26.4742 239.002 26.7209 238.057 27.0654C238.197 26.6662 238.327 26.2634 238.446 25.8574C238.892 24.3201 239.02 23.1361 238.721 22.2108C238.56 21.7113 238.26 21.2679 237.857 20.9321C233.276 17.1134 228.876 23.7454 229.877 27.2548C229.924 27.4187 229.984 27.5784 230.057 27.7321C230.227 28.1072 230.474 28.4424 230.781 28.7161C231.849 29.6494 233.49 29.5788 235.13 29.4001C235.328 29.3783 235.526 29.3556 235.724 29.3321ZM607.857 18.9321H612.19C612.403 18.9353 612.612 18.8819 612.797 18.7774C613.072 18.6174 613.258 18.3428 613.31 17.9974C613.32 17.9316 613.324 17.8652 613.324 17.7988C613.326 17.5601 613.247 17.3277 613.098 17.1406C612.95 16.9535 612.742 16.823 612.509 16.7708C612.405 16.7449 612.298 16.7319 612.19 16.7321H608.524C608.739 16.0407 608.952 15.3487 609.164 14.6561C609.496 13.5641 609.782 12.5908 609.99 11.7988C610.015 11.7224 610.036 11.645 610.053 11.5668C610.35 10.2348 609.582 8.90277 608.245 8.51344C608.183 8.49525 608.12 8.47924 608.057 8.46544L607.99 8.39877C607.844 8.36239 607.694 8.33919 607.544 8.32944C606.345 8.24944 605.146 9.01344 604.79 10.1988C604.19 12.1321 603.457 14.3321 602.724 16.7321H597.724C597.576 16.7308 597.43 16.7604 597.294 16.8189C597.158 16.8775 597.036 16.9637 596.936 17.0721C596.755 17.2705 596.655 17.5301 596.657 17.7988C596.655 18.0016 596.703 18.2017 596.797 18.3814C596.886 18.5497 597.019 18.6902 597.183 18.7874C597.346 18.8846 597.534 18.9346 597.724 18.9321H602.057C601.866 19.5533 601.678 20.1751 601.49 20.7974C597.697 33.4121 593.902 48.9134 597.974 54.3548C598.348 54.865 598.818 55.2965 599.358 55.6244C599.899 55.9523 600.499 56.1702 601.124 56.2654C601.363 56.3086 601.606 56.3318 601.849 56.3348C606.918 56.3921 609.749 47.3094 610.621 43.9388C610.633 43.8921 610.645 43.8455 610.657 43.7988C610.673 43.7509 610.683 43.7012 610.687 43.6508C610.703 43.3841 610.528 43.1361 610.286 43.0094C610.215 42.9717 610.137 42.9456 610.057 42.9321C609.696 42.8721 609.389 43.0294 609.284 43.3548C609.272 43.391 609.263 43.4279 609.257 43.4654C609.171 43.7772 609.08 44.0875 608.984 44.3961C607.882 47.9188 605.401 53.7534 602.976 53.7534C602.891 53.7535 602.807 53.7463 602.724 53.7321C602.426 53.6658 602.152 53.5216 601.928 53.3143C601.705 53.1069 601.54 52.8439 601.452 52.5521C599.682 48.2761 603.605 33.4694 606.877 22.2588C607.201 21.149 607.528 20.0401 607.857 18.9321ZM422.39 26.4654H422.324C422.102 26.4125 421.875 26.3856 421.648 26.3854C421.081 26.3798 420.526 26.5516 420.062 26.8767C419.597 27.2018 419.246 27.6641 419.057 28.1988C418.59 29.5321 418.124 30.8654 417.724 32.2654C417.648 31.5385 417.495 30.8216 417.268 30.1268C416.292 27.2174 414.146 26.1254 412.001 26.4481C411.514 26.5233 411.04 26.6637 410.59 26.8654C409.247 27.4948 408.055 28.4056 407.094 29.5361C400.57 36.8068 397.341 54.1894 404.257 56.1321C404.602 56.2275 404.956 56.2852 405.313 56.3041C409.353 56.5108 412.489 51.4254 414.546 46.3388C414.699 45.9607 414.847 45.5807 414.99 45.1988C414.945 45.7707 414.916 46.3438 414.902 46.9174C414.793 51.9908 416.16 55.7254 420.124 56.2654C425.649 57.0548 428.708 47.4628 429.621 43.9401C429.633 43.893 429.645 43.8459 429.657 43.7988C429.673 43.7509 429.683 43.7012 429.686 43.6508C429.702 43.3841 429.528 43.1361 429.286 43.0094C429.215 42.9717 429.137 42.9456 429.057 42.9321C428.696 42.8721 428.389 43.0294 428.284 43.3548C428.272 43.391 428.263 43.4279 428.257 43.4654C427.324 46.8654 424.457 53.9321 421.724 53.7321C417.161 53.3468 421.086 40.5694 423.944 30.8694C424.049 30.5126 424.153 30.1558 424.257 29.7988C424.281 29.7224 424.302 29.645 424.32 29.5668C424.632 28.1748 423.78 26.7814 422.39 26.4654ZM534.524 26.4654H534.457C534.236 26.4125 534.009 26.3856 533.781 26.3854C533.214 26.3798 532.66 26.5516 532.195 26.8767C531.731 27.2018 531.379 27.6641 531.19 28.1988C530.724 29.5321 530.257 30.8654 529.857 32.2654C529.781 31.5385 529.628 30.8216 529.401 30.1268C528.425 27.2174 526.28 26.1254 524.134 26.4481C523.648 26.5233 523.173 26.6637 522.724 26.8654C521.381 27.4948 520.188 28.4056 519.228 29.5361C512.704 36.8068 509.474 54.1894 516.39 56.1321C516.735 56.2275 517.089 56.2852 517.446 56.3041C521.486 56.5108 524.622 51.4254 526.68 46.3388C526.833 45.9607 526.981 45.5807 527.124 45.1988C527.078 45.7707 527.049 46.3438 527.036 46.9174C526.926 51.9908 528.293 55.7254 532.257 56.2654C537.782 57.0548 540.841 47.4628 541.754 43.9401C541.767 43.893 541.779 43.8459 541.79 43.7988C541.807 43.7509 541.817 43.7012 541.82 43.6508C541.836 43.3841 541.661 43.1361 541.42 43.0094C541.348 42.9717 541.271 42.9456 541.19 42.9321C540.829 42.8721 540.522 43.0294 540.417 43.3548C540.406 43.391 540.397 43.4279 540.39 43.4654C539.457 46.8654 536.59 53.9321 533.857 53.7321C529.294 53.3468 533.22 40.5694 536.077 30.8694C536.182 30.5126 536.286 30.1558 536.39 29.7988C536.415 29.7224 536.436 29.645 536.453 29.5668C536.765 28.1748 535.913 26.7814 534.524 26.4654ZM551.79 8.46544L551.724 8.39877C551.514 8.34854 551.299 8.32304 551.084 8.32277C550.512 8.31909 549.955 8.49953 549.494 8.83741C549.032 9.17528 548.692 9.65262 548.524 10.1988C544.057 24.3988 533.99 54.3988 544.79 56.2654C545.033 56.3086 545.278 56.3317 545.524 56.3348C550.65 56.3921 553.482 47.3094 554.354 43.9388C554.367 43.8921 554.379 43.8455 554.39 43.7988C554.407 43.7509 554.417 43.7012 554.42 43.6508C554.436 43.3841 554.261 43.1361 554.02 43.0094C553.948 42.9717 553.871 42.9456 553.79 42.9321C553.429 42.8721 553.122 43.0294 553.017 43.3548C553.006 43.391 552.997 43.4279 552.99 43.4654C552.086 46.7614 549.302 53.7534 546.704 53.7534C546.621 53.7535 546.539 53.7464 546.457 53.7321C546.162 53.6682 545.89 53.5266 545.668 53.3219C545.446 53.1172 545.283 52.857 545.196 52.5681C542.945 47.1428 549.924 24.4921 553.036 14.1161C553.268 13.3444 553.497 12.572 553.724 11.7988C553.748 11.7224 553.769 11.645 553.786 11.5668C554.084 10.2348 553.316 8.90277 551.978 8.51344C551.916 8.49525 551.854 8.47924 551.79 8.46544ZM80.3238 56.0654C87.4571 58.4654 92.9238 49.3988 94.4571 43.7988C94.5905 43.3988 94.3238 42.9321 93.8571 42.9321C93.815 42.9239 93.7721 42.9199 93.7291 42.9201C93.5884 42.9173 93.451 42.9635 93.3405 43.0508C93.2301 43.1381 93.1535 43.2611 93.1238 43.3988C92.4751 45.3979 91.5323 47.2893 90.3265 49.0108C87.9531 52.3534 84.8865 54.2814 82.4571 52.9321C81.8046 52.5378 81.3056 51.9331 81.0425 51.2174C80.4665 49.8321 80.3611 47.8721 80.5731 45.6881C80.6422 44.9884 80.737 44.2915 80.8571 43.5988C81.1107 43.557 81.3624 43.5049 81.6118 43.4428C83.8105 42.8961 86.0105 41.5521 87.8051 39.7414C90.1739 37.4714 91.6175 34.4042 91.8571 31.1321C91.8594 31.0668 91.8607 31.0015 91.8611 30.9361C91.8611 26.5041 87.4158 25.5521 84.5238 26.8654C83.0896 27.5531 81.8245 28.5482 80.8185 29.7801C74.5878 37.0108 71.9185 53.2454 80.3238 56.0654ZM117.057 56.0654C124.19 58.4654 129.657 49.3988 131.19 43.7988C131.324 43.3988 131.057 42.9321 130.59 42.9321C130.548 42.9239 130.505 42.9199 130.462 42.9201C130.322 42.9173 130.184 42.9635 130.074 43.0508C129.963 43.1381 129.887 43.2611 129.857 43.3988C129.208 45.3979 128.266 47.2893 127.06 49.0108C124.686 52.3534 121.62 54.2814 119.19 52.9321C118.538 52.5378 118.039 51.9331 117.776 51.2174C117.2 49.8321 117.094 47.8721 117.306 45.6881C117.376 44.9884 117.47 44.2915 117.59 43.5988C117.844 43.557 118.096 43.5049 118.345 43.4428C120.544 42.8961 122.744 41.5521 124.538 39.7414C126.907 37.4714 128.351 34.4042 128.59 31.1321C128.593 31.0668 128.594 31.0015 128.594 30.9361C128.594 26.5041 124.149 25.5521 121.257 26.8654C119.823 27.5531 118.558 28.5482 117.552 29.7801C111.321 37.0108 108.652 53.2454 117.057 56.0654ZM218.057 56.0654C225.19 58.4654 230.657 49.3988 232.19 43.7988C232.324 43.3988 232.057 42.9321 231.59 42.9321C231.548 42.9239 231.505 42.9199 231.462 42.9201C231.322 42.9173 231.184 42.9635 231.074 43.0508C230.963 43.1381 230.887 43.2611 230.857 43.3988C230.208 45.3979 229.266 47.2893 228.06 49.0108C225.686 52.3534 222.62 54.2814 220.19 52.9321C219.538 52.5378 219.039 51.9331 218.776 51.2174C218.2 49.8321 218.094 47.8721 218.306 45.6881C218.376 44.9884 218.47 44.2915 218.59 43.5988C218.844 43.557 219.096 43.5049 219.345 43.4428C221.544 42.8961 223.744 41.5521 225.538 39.7414C227.907 37.4714 229.351 34.4042 229.59 31.1321C229.593 31.0668 229.594 31.0015 229.594 30.9361C229.594 26.5041 225.149 25.5521 222.257 26.8654C220.823 27.5531 219.558 28.5482 218.552 29.7801C212.321 37.0108 209.652 53.2454 218.057 56.0654ZM557.724 56.0654C564.857 58.4654 570.324 49.3988 571.857 43.7988C571.99 43.3988 571.724 42.9321 571.257 42.9321C571.215 42.9239 571.172 42.9199 571.129 42.9201C570.988 42.9173 570.851 42.9635 570.741 43.0508C570.63 43.1381 570.553 43.2611 570.524 43.3988C569.875 45.3979 568.932 47.2893 567.726 49.0108C565.353 52.3534 562.286 54.2814 559.857 52.9321C559.205 52.5378 558.706 51.9331 558.442 51.2174C557.866 49.8321 557.761 47.8721 557.973 45.6881C558.042 44.9884 558.137 44.2915 558.257 43.5988C558.511 43.557 558.762 43.5049 559.012 43.4428C561.21 42.8961 563.41 41.5521 565.205 39.7414C567.574 37.4714 569.017 34.4042 569.257 31.1321C569.259 31.0668 569.261 31.0015 569.261 30.9361C569.261 26.5041 564.816 25.5521 561.924 26.8654C560.49 27.5531 559.225 28.5482 558.218 29.7801C551.988 37.0108 549.318 53.2454 557.724 56.0654ZM67.4571 56.2654C67.6713 56.2961 67.8874 56.3117 68.1038 56.3121C73.3585 56.3121 76.2251 47.0668 77.0571 43.7988C77.0733 43.7509 77.0832 43.7012 77.0865 43.6508C77.1025 43.3841 76.9278 43.1361 76.6865 43.0094C76.6146 42.9717 76.5372 42.9456 76.4571 42.9321C76.0958 42.8721 75.7891 43.0294 75.6838 43.3548C75.6722 43.391 75.6633 43.4279 75.6571 43.4654C74.7238 46.8654 71.8571 53.9321 69.1238 53.7321C64.5611 53.3468 68.4865 40.5694 71.3438 30.8694C71.4486 30.5126 71.553 30.1558 71.6571 29.7988C71.6814 29.7224 71.7023 29.645 71.7198 29.5668C72.0171 28.2348 71.2491 26.9028 69.9118 26.5134C69.8497 26.4953 69.787 26.4792 69.7238 26.4654C69.5024 26.4125 69.2755 26.3856 69.0478 26.3854C68.4808 26.3798 67.9262 26.5516 67.4617 26.8767C66.9972 27.2018 66.6459 27.6641 66.4571 28.1988C65.6262 30.583 64.8822 32.9966 64.2265 35.4348C61.5918 45.3188 60.7905 55.3588 67.4571 56.2654ZM329.924 56.2654C330.138 56.2961 330.354 56.3117 330.57 56.3121C335.825 56.3121 338.692 47.0668 339.524 43.7988C339.54 43.7509 339.55 43.7012 339.553 43.6508C339.569 43.3841 339.394 43.1361 339.153 43.0094C339.081 42.9717 339.004 42.9456 338.924 42.9321C338.562 42.8721 338.256 43.0294 338.15 43.3548C338.139 43.391 338.13 43.4279 338.124 43.4654C337.19 46.8654 334.324 53.9321 331.59 53.7321C327.028 53.3468 330.953 40.5694 333.81 30.8694C333.915 30.5126 334.02 30.1558 334.124 29.7988C334.148 29.7224 334.169 29.645 334.186 29.5668C334.484 28.2348 333.716 26.9028 332.378 26.5134C332.316 26.4953 332.254 26.4792 332.19 26.4654C331.969 26.4125 331.742 26.3856 331.514 26.3854C330.947 26.3798 330.393 26.5516 329.928 26.8767C329.464 27.2018 329.113 27.6641 328.924 28.1988C328.093 30.583 327.349 32.9966 326.693 35.4348C324.058 45.3188 323.257 55.3588 329.924 56.2654ZM613.724 56.2654C613.938 56.2961 614.154 56.3117 614.371 56.3121C619.625 56.3121 622.492 47.0668 623.324 43.7988C623.34 43.7509 623.35 43.7012 623.353 43.6508C623.369 43.3841 623.194 43.1361 622.953 43.0094C622.881 42.9717 622.804 42.9456 622.724 42.9321C622.362 42.8721 622.056 43.0294 621.95 43.3548C621.939 43.391 621.93 43.4279 621.924 43.4654C620.99 46.8654 618.124 53.9321 615.39 53.7321C610.828 53.3468 614.753 40.5694 617.61 30.8694C617.715 30.5126 617.82 30.1558 617.924 29.7988C617.948 29.7224 617.969 29.645 617.986 29.5668C618.284 28.2348 617.516 26.9028 616.178 26.5134C616.116 26.4953 616.054 26.4792 615.99 26.4654C615.769 26.4125 615.542 26.3856 615.314 26.3854C614.747 26.3798 614.193 26.5516 613.728 26.8767C613.264 27.2018 612.913 27.6641 612.724 28.1988C611.893 30.583 611.149 32.9966 610.493 35.4348C607.858 45.3188 607.057 55.3588 613.724 56.2654ZM414.388 30.0334C414.299 30.0374 414.211 30.0481 414.124 30.0654C409.409 31.0094 404.224 47.8494 406.174 52.0588C406.262 52.3053 406.416 52.5232 406.618 52.6888C406.821 52.8545 407.065 52.9617 407.324 52.9988C407.372 53.0041 407.421 53.0068 407.469 53.0068C410.162 53.0068 413.802 44.9281 415.697 39.4401C415.893 38.8739 416.08 38.3045 416.257 37.7321C416.292 37.5628 416.325 37.4108 416.36 37.2668C416.391 37.1328 416.424 36.999 416.457 36.8654C416.489 36.6955 416.517 36.5248 416.54 36.3534C416.908 33.6228 416.37 29.9428 414.388 30.0334ZM526.521 30.0334C526.432 30.0374 526.344 30.0481 526.257 30.0654C521.542 31.0094 516.357 47.8494 518.308 52.0588C518.396 52.3053 518.549 52.5232 518.752 52.6888C518.954 52.8545 519.198 52.9617 519.457 52.9988C519.505 53.0041 519.554 53.0068 519.602 53.0068C522.296 53.0068 525.936 44.9281 527.83 39.4401C528.026 38.8739 528.213 38.3045 528.39 37.7321C528.425 37.5628 528.458 37.4108 528.493 37.2668C528.525 37.1328 528.557 36.999 528.59 36.8654C528.622 36.6955 528.65 36.5248 528.673 36.3534C529.041 33.6228 528.504 29.9428 526.521 30.0334ZM209.834 7.48544C209.86 6.82691 209.715 6.17295 209.416 5.58592C209.117 4.99889 208.672 4.49837 208.124 4.13211C207.972 4.02993 207.814 3.93601 207.652 3.85077C204.852 2.37877 201.572 4.10811 199.525 7.30677C198.437 9.02334 197.774 10.9746 197.59 12.9988C198.068 13.2179 198.557 13.4106 199.056 13.5761C205.716 15.7761 209.834 11.2041 209.834 7.48544ZM397.568 7.48544C397.593 6.82691 397.449 6.17295 397.149 5.58592C396.85 4.99889 396.405 4.49837 395.857 4.13211C395.705 4.02993 395.547 3.93601 395.385 3.85077C392.585 2.37877 389.305 4.10811 387.258 7.30677C386.17 9.02334 385.507 10.9746 385.324 12.9988C385.801 13.2179 386.291 13.4106 386.789 13.5761C393.449 15.7761 397.568 11.2041 397.568 7.48544ZM81.3238 41.5321C81.7652 41.4212 82.1955 41.2699 82.6091 41.0801C87.9278 38.6494 90.7651 30.2548 88.7238 29.2654C88.5675 29.1913 88.3967 29.1531 88.2238 29.1534C85.9665 29.1534 82.8105 35.4001 81.3238 41.5321ZM118.057 41.5321C118.499 41.4212 118.929 41.2699 119.342 41.0801C124.661 38.6494 127.498 30.2548 125.457 29.2654C125.301 29.1913 125.13 29.1531 124.957 29.1534C122.7 29.1534 119.544 35.4001 118.057 41.5321ZM219.057 41.5321C219.499 41.4212 219.929 41.2699 220.342 41.0801C225.661 38.6494 228.498 30.2548 226.457 29.2654C226.301 29.1913 226.13 29.1531 225.957 29.1534C223.7 29.1534 220.544 35.4001 219.057 41.5321ZM558.724 41.5321C559.165 41.4212 559.595 41.2699 560.009 41.0801C565.328 38.6494 568.165 30.2548 566.124 29.2654C565.968 29.1913 565.797 29.1531 565.624 29.1534C563.366 29.1534 560.21 35.4001 558.724 41.5321ZM279.885 43.1294C279.853 43.1517 279.821 43.1748 279.79 43.1988C279.476 43.4264 279.213 43.7178 279.019 44.0539C278.824 44.39 278.703 44.7633 278.662 45.1494C278.48 46.5268 279.064 48.3374 280.569 50.2854C280.85 50.6472 281.146 50.9964 281.457 51.3321C281.5 51.393 281.555 51.444 281.619 51.4817C281.683 51.5194 281.754 51.543 281.828 51.5508C281.922 51.5641 282.024 51.5574 282.124 51.5321C282.784 51.3021 283.426 51.0263 284.048 50.7068C286.493 49.4361 287.726 47.7894 287.726 46.2961C287.726 45.8927 287.634 45.4945 287.457 45.1321C286.805 43.6961 284.81 43.2828 283.538 44.7054C283.511 44.736 283.484 44.7671 283.457 44.7988C283.068 42.9121 281.154 42.2321 279.885 43.1294ZM188.018 41.9294C187.986 41.9517 187.955 41.9748 187.924 41.9988C187.597 42.2461 187.327 42.5611 187.133 42.9221C186.939 43.2831 186.826 43.6818 186.8 44.0908C186.673 45.4588 187.282 47.2134 188.737 49.1121C189.008 49.4636 189.292 49.8039 189.59 50.1321C189.633 50.193 189.688 50.244 189.752 50.2817C189.816 50.3194 189.887 50.343 189.961 50.3508C190.056 50.3641 190.157 50.3574 190.257 50.3321C190.917 50.1023 191.56 49.8279 192.182 49.5108C194.626 48.2508 195.86 46.6308 195.86 45.1201C195.859 44.7091 195.767 44.3033 195.59 43.9321C194.938 42.4961 192.944 42.0828 191.672 43.5054C191.644 43.536 191.617 43.5671 191.59 43.5988C191.201 41.7121 189.288 41.0321 188.018 41.9294ZM375.752 41.9294C375.72 41.9517 375.688 41.9748 375.657 41.9988C375.33 42.2461 375.061 42.5611 374.867 42.9221C374.673 43.2831 374.559 43.6818 374.533 44.0908C374.406 45.4588 375.016 47.2134 376.47 49.1121C376.741 49.4636 377.026 49.8039 377.324 50.1321C377.366 50.193 377.421 50.244 377.485 50.2817C377.549 50.3194 377.621 50.343 377.694 50.3508C377.789 50.3641 377.89 50.3574 377.99 50.3321C378.65 50.1023 379.293 49.8279 379.916 49.5108C382.36 48.2508 383.593 46.6308 383.593 45.1201C383.592 44.7091 383.5 44.3033 383.324 43.9321C382.672 42.4961 380.677 42.0828 379.405 43.5054C379.377 43.536 379.35 43.5671 379.324 43.5988C378.934 41.7121 377.021 41.0321 375.752 41.9294ZM74.5571 20.7321C74.5574 20.4568 74.5007 20.1844 74.3905 19.9321C74.2433 19.6225 74.0113 19.361 73.7215 19.1779C73.4317 18.9947 73.0959 18.8975 72.7531 18.8974C72.2451 18.8974 71.7238 19.1134 71.3238 19.5988C71.0918 18.6241 70.2798 18.0708 69.4918 18.0708C69.1414 18.0677 68.8002 18.1833 68.5238 18.3988C67.2625 19.3614 67.2998 21.4068 69.0798 23.8041C69.2835 24.0777 69.4984 24.3428 69.7238 24.5988C69.8411 24.7148 70.0585 24.7814 70.2011 24.7521C70.2206 24.7479 70.2394 24.7411 70.2571 24.7321C73.1491 23.7308 74.5571 22.1268 74.5571 20.7321ZM337.024 20.7321C337.024 20.4568 336.967 20.1844 336.857 19.9321C336.71 19.6225 336.478 19.361 336.188 19.1779C335.898 18.9947 335.563 18.8975 335.22 18.8974C334.712 18.8974 334.19 19.1134 333.79 19.5988C333.558 18.6241 332.746 18.0708 331.958 18.0708C331.608 18.0677 331.267 18.1833 330.99 18.3988C329.729 19.3614 329.766 21.4068 331.546 23.8041C331.75 24.0777 331.965 24.3428 332.19 24.5988C332.308 24.7148 332.525 24.7814 332.668 24.7521C332.687 24.7479 332.706 24.7411 332.724 24.7321C335.616 23.7308 337.024 22.1268 337.024 20.7321ZM620.824 20.7321C620.824 20.4568 620.767 20.1844 620.657 19.9321C620.51 19.6225 620.278 19.361 619.988 19.1779C619.698 18.9947 619.363 18.8975 619.02 18.8974C618.512 18.8974 617.99 19.1134 617.59 19.5988C617.358 18.6241 616.546 18.0708 615.758 18.0708C615.408 18.0677 615.067 18.1833 614.79 18.3988C613.529 19.3614 613.566 21.4068 615.346 23.8041C615.55 24.0777 615.765 24.3428 615.99 24.5988C616.108 24.7148 616.325 24.7814 616.468 24.7521C616.487 24.7479 616.506 24.7411 616.524 24.7321C619.416 23.7308 620.824 22.1268 620.824 20.7321ZM99.6771 23.0668C99.6323 22.8498 99.5058 22.6584 99.3238 22.5321C97.7905 21.4654 95.5238 26.5988 96.4571 27.5321C96.5892 27.6309 96.7364 27.7074 96.8931 27.7588C97.3651 27.9161 97.9411 27.8654 98.5905 27.6654C98.6415 27.5283 98.6922 27.3909 98.7425 27.2534C99.4758 25.2468 99.8731 23.8414 99.6771 23.0668ZM237.41 23.0668C237.366 22.8498 237.239 22.6584 237.057 22.5321C235.524 21.4654 233.257 26.5988 234.19 27.5321C234.323 27.6309 234.47 27.7074 234.626 27.7588C235.098 27.9161 235.674 27.8654 236.324 27.6654C236.375 27.5283 236.426 27.3909 236.476 27.2534C237.209 25.2468 237.606 23.8414 237.41 23.0668Z" fill="black"/>
</svg>
